FFmpeg version SVN-r25716, Copyright (c) 2000-2010 the FFmpeg developers  built on Nov 10 2010 12:23:18 with gcc 4.1.2 20080704 (Red Hat 4.1.2-48)  configuration: --enable-libmp3lame --enable-shared --disable-mmx --arch=x86_64  libavutil     50.33. 0 / 50.33. 0  libavcore      0.12. 1 /  0.12. 1  libavcodec    52.94. 4 / 52.94. 4  libavformat   52.84. 0 / 52.84. 0  libavdevice   52. 2. 2 / 52. 2. 2  libavfilter    1.59. 0 /  1.59. 0  libswscale     0.12. 0 /  0.12. 0Input #0, avi, from '/RAID10/data/converted_video_files/47510.avi':  Duration: 00:00:04.13, start: 0.000000, bitrate: 156779 kb/s    Stream #0.0: Video: msvideo1, rgb555le, 1024x1024, 30 tbr, 30 tbn, 30 tbc[buffer @ 0x1cc733b0] w:1024 h:1024 pixfmt:rgb555le[ffsink @ 0x1cc8fb40] auto-inserting filter 'auto-inserted scaler 0' between the filter 'src' and the filter 'out'[scale @ 0x1ccc9e00] w:1024 h:1024 fmt:rgb555le -> w:1024 h:1024 fmt:yuv420p flags:0x4Output #0, flv, to '/RAID10/data/converted_video_files/47510.flv':  Metadata:    encoder         : Lavf52.84.0    Stream #0.0: Video: flv, yuv420p, 1024x1024, q=2-31, 600 kb/s, 1k tbn, 24 tbcStream mapping:  Stream #0.0 -> #0.0Press [q] to stop encodingframe=    4 fps=  0 q=6.4 size=     676kB time=0.17 bitrate=33167.0kbits/s dup=0 drop=1    frame=    9 fps=  8 q=14.8 size=     798kB time=0.38 bitrate=17423.0kbits/s dup=0 drop=2    frame=   17 fps= 10 q=31.0 size=     813kB time=0.71 bitrate=9403.5kbits/s dup=0 drop=4    frame=   26 fps= 12 q=31.0 size=     845kB time=1.08 bitrate=6390.9kbits/s dup=0 drop=6    frame=   35 fps= 13 q=31.0 size=     877kB time=1.46 bitrate=4929.6kbits/s dup=0 drop=8    frame=   44 fps= 14 q=31.0 size=     910kB time=1.83 bitrate=4067.2kbits/s dup=0 drop=10    frame=   53 fps= 14 q=31.0 size=     916kB time=2.21 bitrate=3400.2kbits/s dup=0 drop=13    frame=   55 fps= 14 q=31.0 Lsize=     944kB time=2.29 bitrate=3372.8kbits/s dup=0 drop=13    video:943kB audio:0kB global headers:0kB muxing overhead 0.112928%